#Comment line ignore any data following # character 
#Hierarchical Translation and Rotation (.htr) file 
[Header]	
#Header keywords are followed by a single value 
FileType HTR		#Single word string
DataType HTRS		#Translation followed by rotation and scale data
FileVersion 1		#integer
NumSegments 84		#integer
NumFrames 2		#integer
DataFrameRate 30		#integer, data frame rate in this file
EulerRotationOrder ZYX
CalibrationUnits mm
RotationUnits Degrees
GlobalAxisofGravity Y
BoneLengthAxis Y
ScaleFactor 1.00
[SegmentNames&Hierarchy]
#CHILD	PARENT
MASTER GLOBAL
root MASTER
chest root
L_mid_tent01 root
R_mid_tent01 root
spine01 root
Bip01_Neck chest
L_humerus chest
R_humerus chest
weapon_bone chest
Bip01_Head Bip01_Neck
eye_left_bone Bip01_Head
eye_right_bone Bip01_Head
L_forearm L_humerus
L_front_hand L_forearm
L_weapon_bone L_forearm
L_front_hand01_01 L_front_hand
L_front_hand02_01 L_front_hand
L_front_hand03_01 L_front_hand
L_front_hand01_02 L_front_hand01_01
L_front_hand02_02 L_front_hand02_01
L_front_hand03_02 L_front_hand03_01
R_forearm R_humerus
R_front_hand R_forearm
R_weapon_bone R_forearm
R_front_hand01_01 R_front_hand
R_front_hand02_01 R_front_hand
R_front_hand03_01 R_front_hand
R_front_hand01_02 R_front_hand01_01
R_front_hand02_02 R_front_hand02_01
R_front_hand03_02 R_front_hand03_01
null_rope01_connect L_mid_tent01
Rope1_Seg01 null_rope01_connect
Rope1_Seg02 Rope1_Seg01
Rope1_Seg03 Rope1_Seg02
Rope1_Seg04 Rope1_Seg03
Rope1_Seg05 Rope1_Seg04
Rope1_Seg06 Rope1_Seg05
Rope1_Seg07 Rope1_Seg06
Rope1_Seg09 Rope1_Seg07
L_mid_hand01 Rope1_Seg09
L_mid_hand02 Rope1_Seg09
L_mid_hand03 Rope1_Seg09
null_rope02_connect R_mid_tent01
Rope2_Seg01 null_rope02_connect
Rope2_Seg02 Rope2_Seg01
Rope2_Seg03 Rope2_Seg02
Rope2_Seg04 Rope2_Seg03
Rope2_Seg05 Rope2_Seg04
Rope2_Seg06 Rope2_Seg05
Rope2_Seg07 Rope2_Seg06
Rope2_Seg09 Rope2_Seg07
R_mid_hand01 Rope2_Seg09
R_mid_hand02 Rope2_Seg09
R_mid_hand03 Rope2_Seg09
spine02 spine01
spine03 spine02
pelvis spine03
null_rope03_connect pelvis
null_rope04_connect pelvis
Rope3_Seg01 null_rope03_connect
Rope3_Seg02 Rope3_Seg01
Rope3_Seg03 Rope3_Seg02
Rope3_Seg04 Rope3_Seg03
Rope3_Seg05 Rope3_Seg04
Rope3_Seg06 Rope3_Seg05
Rope3_Seg07 Rope3_Seg06
Rope3_Seg08 Rope3_Seg07
Rope3_Seg09 Rope3_Seg08
R_rear_hand01 Rope3_Seg09
R_rear_hand02 Rope3_Seg09
R_rear_hand03 Rope3_Seg09
Rope4_Seg01 null_rope04_connect
Rope4_Seg02 Rope4_Seg01
Rope4_Seg03 Rope4_Seg02
Rope4_Seg04 Rope4_Seg03
Rope4_Seg05 Rope4_Seg04
Rope4_Seg06 Rope4_Seg05
Rope4_Seg07 Rope4_Seg06
Rope4_Seg08 Rope4_Seg07
Rope4_Seg09 Rope4_Seg08
L_rear_hand01 Rope4_Seg09
L_rear_hand02 Rope4_Seg09
L_rear_hand03 Rope4_Seg09
[BasePosition]
#SegmentName Tx, Ty, Tz, Rx, Ry, Rz, BoneLength
MASTER 0.000000 0.000000 0.000000 -90.000000 0.000000 0.000000 10.000000 
root 0.000000 0.000000 0.000000 0.000000 0.000000 0.000000 10.000000 
chest 0.000000 0.000000 0.000000 0.000000 0.000000 0.000000 10.000000 
L_mid_tent01 0.000000 0.000000 0.000000 0.000000 0.000000 0.000000 10.000000 
R_mid_tent01 0.000000 0.000000 0.000000 0.000000 0.000000 0.000000 10.000000 
spine01 0.000000 0.000000 0.000000 0.000000 0.000000 0.000000 10.000000 
Bip01_Neck 0.000000 0.000000 0.000000 0.000000 0.000000 0.000000 10.000000 
L_humerus 0.000000 0.000000 0.000000 0.000000 0.000000 0.000000 10.000000 
R_humerus 0.000000 0.000000 0.000000 0.000000 0.000000 0.000000 10.000000 
weapon_bone 0.000000 0.000000 0.000000 0.000000 0.000000 0.000000 10.000000 
Bip01_Head 0.000000 0.000000 0.000000 0.000000 0.000000 0.000000 10.000000 
eye_left_bone 0.000000 0.000000 0.000000 0.000000 0.000000 0.000000 10.000000 
eye_right_bone 0.000000 0.000000 0.000000 0.000000 0.000000 0.000000 10.000000 
L_forearm 0.000000 0.000000 0.000000 0.000000 0.000000 0.000000 10.000000 
L_front_hand 0.000000 0.000000 0.000000 0.000000 0.000000 0.000000 10.000000 
L_weapon_bone 0.000000 0.000000 0.000000 0.000000 0.000000 0.000000 10.000000 
L_front_hand01_01 0.000000 0.000000 0.000000 0.000000 0.000000 0.000000 10.000000 
L_front_hand02_01 0.000000 0.000000 0.000000 0.000000 0.000000 0.000000 10.000000 
L_front_hand03_01 0.000000 0.000000 0.000000 0.000000 0.000000 0.000000 10.000000 
L_front_hand01_02 0.000000 0.000000 0.000000 0.000000 0.000000 0.000000 10.000000 
L_front_hand02_02 0.000000 0.000000 0.000000 0.000000 0.000000 0.000000 10.000000 
L_front_hand03_02 0.000000 0.000000 0.000000 0.000000 0.000000 0.000000 10.000000 
R_forearm 0.000000 0.000000 0.000000 0.000000 0.000000 0.000000 10.000000 
R_front_hand 0.000000 0.000000 0.000000 0.000000 0.000000 0.000000 10.000000 
R_weapon_bone 0.000000 0.000000 0.000000 0.000000 0.000000 0.000000 10.000000 
R_front_hand01_01 0.000000 0.000000 0.000000 0.000000 0.000000 0.000000 10.000000 
R_front_hand02_01 0.000000 0.000000 0.000000 0.000000 0.000000 0.000000 10.000000 
R_front_hand03_01 0.000000 0.000000 0.000000 0.000000 0.000000 0.000000 10.000000 
R_front_hand01_02 0.000000 0.000000 0.000000 0.000000 0.000000 0.000000 10.000000 
R_front_hand02_02 0.000000 0.000000 0.000000 0.000000 0.000000 0.000000 10.000000 
R_front_hand03_02 0.000000 0.000000 0.000000 0.000000 0.000000 0.000000 10.000000 
null_rope01_connect 0.000000 0.000000 0.000000 0.000000 0.000000 0.000000 10.000000 
Rope1_Seg01 0.000000 0.000000 0.000000 0.000000 0.000000 0.000000 10.000000 
Rope1_Seg02 0.000000 0.000000 0.000000 0.000000 0.000000 0.000000 10.000000 
Rope1_Seg03 0.000000 0.000000 0.000000 0.000000 0.000000 0.000000 10.000000 
Rope1_Seg04 0.000000 0.000000 0.000000 0.000000 0.000000 0.000000 10.000000 
Rope1_Seg05 0.000000 0.000000 0.000000 0.000000 0.000000 0.000000 10.000000 
Rope1_Seg06 0.000000 0.000000 0.000000 0.000000 0.000000 0.000000 10.000000 
Rope1_Seg07 0.000000 0.000000 0.000000 0.000000 0.000000 0.000000 10.000000 
Rope1_Seg09 0.000000 0.000000 0.000000 0.000000 0.000000 0.000000 10.000000 
L_mid_hand01 0.000000 0.000000 0.000000 0.000000 0.000000 0.000000 10.000000 
L_mid_hand02 0.000000 0.000000 0.000000 0.000000 0.000000 0.000000 10.000000 
L_mid_hand03 0.000000 0.000000 0.000000 0.000000 0.000000 0.000000 10.000000 
null_rope02_connect 0.000000 0.000000 0.000000 0.000000 0.000000 0.000000 10.000000 
Rope2_Seg01 0.000000 0.000000 0.000000 0.000000 0.000000 0.000000 10.000000 
Rope2_Seg02 0.000000 0.000000 0.000000 0.000000 0.000000 0.000000 10.000000 
Rope2_Seg03 0.000000 0.000000 0.000000 0.000000 0.000000 0.000000 10.000000 
Rope2_Seg04 0.000000 0.000000 0.000000 0.000000 0.000000 0.000000 10.000000 
Rope2_Seg05 0.000000 0.000000 0.000000 0.000000 0.000000 0.000000 10.000000 
Rope2_Seg06 0.000000 0.000000 0.000000 0.000000 0.000000 0.000000 10.000000 
Rope2_Seg07 0.000000 0.000000 0.000000 0.000000 0.000000 0.000000 10.000000 
Rope2_Seg09 0.000000 0.000000 0.000000 0.000000 0.000000 0.000000 10.000000 
R_mid_hand01 0.000000 0.000000 0.000000 0.000000 0.000000 0.000000 10.000000 
R_mid_hand02 0.000000 0.000000 0.000000 0.000000 0.000000 0.000000 10.000000 
R_mid_hand03 0.000000 0.000000 0.000000 0.000000 0.000000 0.000000 10.000000 
spine02 0.000000 0.000000 0.000000 0.000000 0.000000 0.000000 10.000000 
spine03 0.000000 0.000000 0.000000 0.000000 0.000000 0.000000 10.000000 
pelvis 0.000000 0.000000 0.000000 0.000000 0.000000 0.000000 10.000000 
null_rope03_connect 0.000000 0.000000 0.000000 0.000000 0.000000 0.000000 10.000000 
null_rope04_connect 0.000000 0.000000 0.000000 0.000000 0.000000 0.000000 10.000000 
Rope3_Seg01 0.000000 0.000000 0.000000 0.000000 0.000000 0.000000 10.000000 
Rope3_Seg02 0.000000 0.000000 0.000000 0.000000 0.000000 0.000000 10.000000 
Rope3_Seg03 0.000000 0.000000 0.000000 0.000000 0.000000 0.000000 10.000000 
Rope3_Seg04 0.000000 0.000000 0.000000 0.000000 0.000000 0.000000 10.000000 
Rope3_Seg05 0.000000 0.000000 0.000000 0.000000 0.000000 0.000000 10.000000 
Rope3_Seg06 0.000000 0.000000 0.000000 0.000000 0.000000 0.000000 10.000000 
Rope3_Seg07 0.000000 0.000000 0.000000 0.000000 0.000000 0.000000 10.000000 
Rope3_Seg08 0.000000 0.000000 0.000000 0.000000 0.000000 0.000000 10.000000 
Rope3_Seg09 0.000000 0.000000 0.000000 0.000000 0.000000 0.000000 10.000000 
R_rear_hand01 0.000000 0.000000 0.000000 0.000000 0.000000 0.000000 10.000000 
R_rear_hand02 0.000000 0.000000 0.000000 0.000000 0.000000 0.000000 10.000000 
R_rear_hand03 0.000000 0.000000 0.000000 0.000000 0.000000 0.000000 10.000000 
Rope4_Seg01 0.000000 0.000000 0.000000 0.000000 0.000000 0.000000 10.000000 
Rope4_Seg02 0.000000 0.000000 0.000000 0.000000 0.000000 0.000000 10.000000 
Rope4_Seg03 0.000000 0.000000 0.000000 0.000000 0.000000 0.000000 10.000000 
Rope4_Seg04 0.000000 0.000000 0.000000 0.000000 0.000000 0.000000 10.000000 
Rope4_Seg05 0.000000 0.000000 0.000000 0.000000 0.000000 0.000000 10.000000 
Rope4_Seg06 0.000000 0.000000 0.000000 0.000000 0.000000 0.000000 10.000000 
Rope4_Seg07 0.000000 0.000000 0.000000 0.000000 0.000000 0.000000 10.000000 
Rope4_Seg08 0.000000 0.000000 0.000000 0.000000 0.000000 0.000000 10.000000 
Rope4_Seg09 0.000000 0.000000 0.000000 0.000000 0.000000 0.000000 10.000000 
L_rear_hand01 0.000000 0.000000 0.000000 0.000000 0.000000 0.000000 10.000000 
L_rear_hand02 0.000000 0.000000 0.000000 0.000000 0.000000 0.000000 10.000000 
L_rear_hand03 0.000000 0.000000 0.000000 0.000000 0.000000 0.000000 10.000000 
#Beginning of Data. Separated by tabs
#Fr	Tx	Ty	Tz	Rx	Ry	Rz	SF
[MASTER]
85 -0.000074 554.566467 0.000000 0.001660 0.001660 0.001660 554.566467
86 -0.000074 554.566467 0.000000 0.001660 0.001660 0.001660 554.566467
[root]
85 -293.884796 383.283936 986.412720 -95.808739 -24.025869 -90.853699 1098.310059
86 -292.653381 386.059937 987.472290 -95.791664 -24.042160 -91.120728 1099.904419
[chest]
85 -84.512650 -34.090519 0.000000 -2.650215 1.485178 178.828506 91.129311
86 -84.512650 -34.090519 0.000000 -3.435328 1.758526 178.797531 91.129311
[L_mid_tent01]
85 27.719917 21.936607 -252.619507 10.635600 18.463715 78.644508 255.080826
86 27.717321 21.938095 -252.602814 10.573299 18.207645 78.538467 255.064133
[R_mid_tent01]
85 23.228794 24.509907 226.238495 154.819077 -32.510353 82.245567 228.744751
86 23.228794 24.509907 226.238495 154.798233 -32.760811 82.335564 228.744751
[spine01]
85 -0.361383 -0.195265 0.000000 0.001869 0.001420 15.534141 0.410763
86 -0.361383 -0.195265 0.000000 0.001869 0.001420 15.534141 0.410763
[Bip01_Neck]
85 165.484543 71.581718 0.000119 175.896118 1.177290 24.871183 180.302734
86 165.484543 71.581718 0.000119 175.896118 1.177290 24.871183 180.302734
[L_humerus]
85 -13.983130 -135.272980 -120.471481 171.283081 0.380311 -125.621315 181.680161
86 -13.983130 -135.272980 -120.471481 171.085999 0.641470 -124.448196 181.680161
[R_humerus]
85 -13.983309 -135.273102 125.287651 178.316910 -29.155704 -88.565712 184.909012
86 -13.983309 -135.273102 125.287651 177.398315 -30.100508 -87.787285 184.909012
[weapon_bone]
85 235.964890 -300.705902 0.000000 0.000000 -89.951546 -128.212341 382.234833
86 235.964890 -300.705902 0.000000 0.000000 -89.951546 -128.212341 382.234833
[Bip01_Head]
85 183.296463 139.123611 12.297383 39.257610 8.495107 -47.382317 230.443481
86 183.296524 139.124680 12.297451 39.257610 8.495107 -47.382317 230.444168
[eye_left_bone]
85 -24.626970 125.451866 -64.772606 0.000000 -90.000000 -99.840431 143.318359
86 -24.626970 125.451866 -64.772606 0.000000 -90.000000 -99.840431 143.318359
[eye_right_bone]
85 -24.626970 125.451866 64.327362 0.000000 -89.960434 80.159386 143.117676
86 -24.626970 125.451866 64.327362 0.000000 -89.960434 80.159386 143.117676
[L_forearm]
85 322.776093 0.000000 -0.000119 0.000055 -0.002347 -92.675598 322.776093
86 322.776093 0.000000 -0.000119 0.000052 -0.002347 -92.525291 322.776093
[L_front_hand]
85 241.149185 -0.042021 -3.300071 -179.305038 -2.158684 -9.292744 241.171753
86 241.149185 -0.042021 -3.300071 -179.292084 -2.154302 -9.640134 241.171753
[L_weapon_bone]
85 156.183838 0.000000 0.000000 0.000014 0.000007 0.000001 156.183838
86 156.183838 0.000000 0.000000 0.000014 0.000007 0.000001 156.183838
[L_front_hand01_01]
85 86.095154 20.947098 -0.655860 -0.366594 -0.477154 75.385574 88.609184
86 86.095154 20.947098 -0.655860 -0.366594 -0.477154 75.385574 88.609184
[L_front_hand02_01]
85 86.935165 -11.437475 24.513514 154.403519 -59.888931 -61.371990 91.046425
86 86.935165 -11.437475 24.513514 154.403519 -59.888931 -61.371990 91.046425
[L_front_hand03_01]
85 86.637497 -14.123976 -20.424902 -153.913849 58.118122 -62.702866 90.126129
86 86.637497 -14.123976 -20.424902 -153.913849 58.118122 -62.702866 90.126129
[L_front_hand01_02]
85 71.020905 -0.000179 0.000030 0.000334 -0.002323 -106.379684 71.020905
86 71.020905 -0.000179 0.000030 0.000334 -0.002323 -106.379684 71.020905
[L_front_hand02_02]
85 71.020927 -0.000119 0.000060 0.000334 -0.002323 -106.379684 71.020927
86 71.020927 -0.000119 0.000060 0.000334 -0.002323 -106.379684 71.020927
[L_front_hand03_02]
85 71.020905 -0.000060 0.000060 0.000334 -0.002323 -106.379684 71.020905
86 71.020905 -0.000060 0.000060 0.000334 -0.002323 -106.379684 71.020905
[R_forearm]
85 322.776428 -0.000060 0.000030 0.212626 0.019111 -95.899986 322.776428
86 322.776428 -0.000060 0.000030 0.212652 0.018826 -95.746719 322.776428
[R_front_hand]
85 238.847015 -0.006795 2.210259 -116.534431 0.789243 -51.441441 238.857239
86 238.847015 -0.006795 2.210259 -116.534431 0.789243 -51.441441 238.857239
[R_weapon_bone]
85 155.664093 0.002503 -0.000030 0.003487 0.001180 -90.988930 155.664078
86 155.664093 0.002503 -0.000030 0.003487 0.001180 -90.988930 155.664078
[R_front_hand01_01]
85 87.624611 14.231146 22.918642 -146.588470 -57.171505 52.321064 91.683487
86 87.624611 14.231146 22.918642 -146.081314 -56.952881 51.717178 91.683487
[R_front_hand02_01]
85 89.356956 14.367283 -19.491137 147.024216 55.544792 54.712822 92.579636
86 89.356956 14.367283 -19.491137 146.547028 55.329418 54.133148 92.579636
[R_front_hand03_01]
85 87.286232 -22.307278 -0.143439 0.122124 -0.437947 -70.133369 90.091743
86 87.286232 -22.307278 -0.143439 0.118797 -0.438644 -69.739426 90.091743
[R_front_hand01_02]
85 71.020905 0.000060 0.000119 0.002341 -0.000169 98.281342 71.020905
86 71.020905 0.000060 0.000119 0.002342 -0.000157 97.670761 71.020905
[R_front_hand02_02]
85 71.020844 -0.000030 -0.000119 0.002341 -0.000169 98.281342 71.020836
86 71.020844 -0.000030 -0.000119 0.002342 -0.000157 97.670761 71.020836
[R_front_hand03_02]
85 71.020905 0.000000 0.000030 0.002341 -0.000169 98.281342 71.020905
86 71.020905 0.000000 0.000030 0.002342 -0.000157 97.670761 71.020905
[null_rope01_connect]
85 328.732483 0.000000 -0.000238 -121.268837 -63.445831 159.012619 328.732483
86 328.732483 0.000000 -0.000238 -120.791336 -63.500568 158.587601 328.732483
[Rope1_Seg01]
85 6.660537 -4.368844 -0.595435 -12.778845 3.925381 178.393402 7.987747
86 6.659145 -4.373347 -0.570280 -13.054427 3.752592 177.621292 7.987215
[Rope1_Seg02]
85 139.999863 -0.000179 0.000000 1.544548 9.509834 -2.937534 139.999863
86 139.999863 -0.000179 0.000000 1.506472 9.360262 -2.800022 139.999863
[Rope1_Seg03]
85 139.999924 0.000060 -0.000060 -0.939620 24.108627 -8.619608 139.999924
86 139.999924 0.000060 -0.000060 -0.805781 23.553932 -8.134933 139.999924
[Rope1_Seg04]
85 139.999924 -0.000060 -0.000119 -23.902296 45.309006 -18.697786 139.999924
86 139.999924 -0.000060 -0.000119 -23.757833 45.674107 -18.197205 139.999924
[Rope1_Seg05]
85 139.999832 0.000119 -0.000060 -23.714531 21.704582 -4.366411 139.999832
86 139.999832 0.000119 -0.000060 -23.988346 22.124809 -4.158171 139.999832
[Rope1_Seg06]
85 139.999954 0.000119 -0.000060 -46.387772 22.122221 -0.144828 139.999954
86 139.999954 0.000119 -0.000060 -45.079140 22.034601 -0.018401 139.999954
[Rope1_Seg07]
85 139.999985 0.000060 0.000000 -32.889084 11.023851 14.384155 139.999985
86 139.999985 0.000060 0.000000 -32.713131 11.231606 14.275822 139.999985
[Rope1_Seg09]
85 121.602913 0.000119 -0.000089 -89.793175 -1.359789 0.847147 121.602913
86 121.602913 0.000119 -0.000089 -89.793175 -1.359789 0.847147 121.602913
[L_mid_hand01]
85 103.859421 1.038730 8.195221 116.294914 -23.111713 -31.758034 104.187431
86 103.859421 1.038730 8.195221 116.294914 -23.111713 -31.758034 104.187431
[L_mid_hand02]
85 105.572853 -4.139662 -10.864139 -144.219833 17.447468 -35.360519 106.211075
86 105.572853 -4.139662 -10.864139 -144.219833 17.447468 -35.360519 106.211075
[L_mid_hand03]
85 104.641464 17.579376 -3.913581 -17.830778 17.153101 31.982922 106.179977
86 104.641464 17.579376 -3.913581 -17.830778 17.153103 31.982925 106.179977
[null_rope02_connect]
85 328.732849 0.000179 -0.000119 -101.511879 54.181816 40.782444 328.732849
86 328.732849 0.000179 -0.000119 -101.906441 54.259304 40.375534 328.732849
[Rope2_Seg01]
85 0.000025 0.000238 0.000000 39.278286 29.335590 -30.522501 0.000239
86 0.000025 0.000239 0.000000 39.112389 29.361834 -30.655375 0.000240
[Rope2_Seg02]
85 139.999741 -0.000060 -0.000119 8.940698 6.982630 8.652715 139.999756
86 139.999741 -0.000060 -0.000119 9.035923 7.024493 8.758929 139.999756
[Rope2_Seg03]
85 140.000107 0.000030 0.000000 14.094110 16.261368 15.322490 140.000107
86 140.000107 0.000030 0.000000 14.283127 16.468994 15.575336 140.000107
[Rope2_Seg04]
85 139.999802 0.000000 -0.000060 12.213700 32.151615 19.030088 139.999802
86 139.999802 0.000000 -0.000060 12.177317 32.174728 19.127026 139.999802
[Rope2_Seg05]
85 139.999985 -0.000060 0.000119 0.087132 16.586226 10.175261 139.999985
86 139.999985 -0.000060 0.000119 0.044789 16.328075 10.098727 139.999985
[Rope2_Seg06]
85 139.999893 -0.000030 -0.000119 -1.775706 6.216208 9.817380 139.999893
86 139.999893 -0.000030 -0.000119 -1.761591 6.308990 9.609537 139.999893
[Rope2_Seg07]
85 139.999893 0.000060 -0.000060 -1.877451 6.666394 7.493505 139.999893
86 139.999893 0.000060 -0.000060 -1.884671 6.707207 7.279050 139.999893
[Rope2_Seg09]
85 121.338966 0.000089 -0.000060 33.793236 -1.359788 -0.847141 121.338966
86 121.338966 0.000089 -0.000060 33.793236 -1.359788 -0.847141 121.338966
[R_mid_hand01]
85 104.680779 11.144459 -10.335981 -41.523792 25.424656 28.595957 105.778534
86 104.680779 11.144459 -10.335981 -41.523792 25.424656 28.595957 105.778534
[R_mid_hand02]
85 104.070427 2.443552 8.231699 72.847389 -32.746803 10.013901 104.424065
86 104.070427 2.443552 8.231699 72.847389 -32.746803 10.013901 104.424065
[R_mid_hand03]
85 106.028137 -11.221827 -5.996406 -167.901306 10.259192 -37.009720 106.788818
86 106.028137 -11.221827 -5.996406 -167.901306 10.259192 -37.009720 106.788818
[spine02]
85 129.756927 0.001550 0.000119 -0.245322 -4.052060 -4.355547 129.756927
86 129.756927 0.001550 0.000119 -0.245322 -4.052060 -4.355547 129.756927
[spine03]
85 78.613846 0.087372 -4.898873 0.369659 4.260734 -4.885720 78.766380
86 78.613846 0.087372 -4.898873 0.369659 4.260734 -4.885720 78.766380
[pelvis]
85 169.435242 0.051022 0.000000 -0.010007 -0.191417 -1.897554 169.435257
86 169.435242 0.051022 0.000000 -0.010007 -0.191417 -1.897554 169.435257
[null_rope03_connect]
85 -1.257226 -2.466202 137.391083 -147.593216 -84.225250 -102.803230 137.418976
86 -1.257226 -2.466202 137.391083 -145.394409 -84.093697 -104.996643 137.418976
[null_rope04_connect]
85 -1.259640 -2.480268 -137.844437 -147.593216 -84.225250 -102.803230 137.872513
86 -1.259640 -2.480268 -137.844437 -145.394409 -84.093697 -104.996643 137.872513
[Rope3_Seg01]
85 0.000000 0.000000 0.000000 -32.012539 -38.913284 -9.648503 0.000000
86 0.000000 0.000000 0.000000 -31.778498 -38.944008 -9.878490 0.000000
[Rope3_Seg02]
85 139.999924 -0.000119 0.000060 -2.096282 -0.962871 4.446964 139.999924
86 139.999924 -0.000119 0.000060 -2.082337 -0.948196 4.454107 139.999924
[Rope3_Seg03]
85 139.999924 -0.000119 0.000119 -3.891692 -1.686660 6.617963 139.999924
86 139.999924 -0.000119 0.000119 -3.873329 -1.664891 6.633543 139.999924
[Rope3_Seg04]
85 139.999924 0.000119 0.000000 -8.669031 -3.475718 10.644479 139.999924
86 139.999924 0.000119 0.000000 -8.658201 -3.440133 10.690282 139.999924
[Rope3_Seg05]
85 139.999924 -0.000238 0.000060 -30.545403 -11.269988 22.793949 139.999924
86 139.999924 -0.000238 0.000060 -30.660883 -11.209290 22.910601 139.999924
[Rope3_Seg06]
85 139.999893 -0.000119 -0.000060 -28.340864 -18.055082 13.493546 139.999893
86 139.999893 -0.000119 -0.000060 -28.523172 -18.066042 13.563592 139.999893
[Rope3_Seg07]
85 139.999771 0.000060 -0.000119 -3.005914 -2.789110 1.588258 139.999771
86 139.999771 0.000060 -0.000119 -3.056093 -2.828919 1.592553 139.999771
[Rope3_Seg08]
85 139.999985 -0.000060 0.000000 -3.880907 -4.207911 1.282246 139.999985
86 139.999985 -0.000060 0.000000 -3.919851 -4.243291 1.278976 139.999985
[Rope3_Seg09]
85 90.185997 -0.000179 -0.000060 89.793228 -1.359877 -0.847183 90.185997
86 90.185997 -0.000179 -0.000060 89.793228 -1.359877 -0.847183 90.185997
[R_rear_hand01]
85 103.366196 -6.073594 -10.757982 -161.551193 16.666374 -30.088671 104.101845
86 103.366196 -6.073594 -10.757982 -161.551193 16.666374 -30.088671 104.101845
[R_rear_hand02]
85 100.509819 12.039542 -7.992327 -34.280552 19.289745 28.875523 101.543350
86 100.509819 12.039542 -7.992327 -34.280552 19.289745 28.875523 101.543350
[R_rear_hand03]
85 101.539970 5.215704 5.435467 83.366440 -30.933914 7.284830 101.819031
86 101.539970 5.215704 5.435467 83.366440 -30.933914 7.284830 101.819031
[Rope4_Seg01]
85 -0.000017 -0.000034 0.000067 -78.311676 -22.982155 -149.074707 0.000077
86 -0.000017 -0.000033 0.000066 -78.644234 -22.876781 -148.704987 0.000076
[Rope4_Seg02]
85 139.999985 0.000060 0.000119 7.657310 12.452509 -5.491199 139.999985
86 139.999985 0.000060 0.000119 7.569294 12.474401 -5.418305 139.999985
[Rope4_Seg03]
85 139.999924 0.000000 -0.000238 20.825237 20.641632 -13.547174 139.999924
86 139.999924 0.000000 -0.000238 20.799887 20.795700 -13.441807 139.999924
[Rope4_Seg04]
85 139.999985 0.000000 0.000119 26.374554 14.082170 -24.357977 139.999985
86 139.999985 0.000000 0.000119 26.631994 14.345899 -24.369883 139.999985
[Rope4_Seg05]
85 139.999802 -0.000060 -0.000119 12.579557 2.267553 -16.876820 139.999802
86 139.999802 -0.000060 -0.000119 12.679260 2.296912 -16.885067 139.999802
[Rope4_Seg06]
85 139.999924 0.000000 0.000060 13.000670 1.719720 -26.937754 139.999924
86 139.999924 0.000000 0.000060 13.103638 1.693538 -26.993177 139.999924
[Rope4_Seg07]
85 139.999802 0.000000 0.000000 6.909135 -4.870293 -30.961060 139.999802
86 139.999802 0.000000 0.000000 6.970584 -4.973452 -31.104221 139.999802
[Rope4_Seg08]
85 139.999924 0.000000 0.000119 -1.425221 -3.805940 -12.953195 139.999924
86 139.999924 0.000000 0.000119 -1.437949 -3.851125 -12.973734 139.999924
[Rope4_Seg09]
85 90.185791 0.000060 0.000060 -135.617828 2.228885 0.850567 90.185791
86 90.185791 0.000060 0.000060 -135.617828 2.228885 0.850567 90.185791
[L_rear_hand01]
85 101.696655 -8.392275 -7.654577 -34.454281 -18.946800 151.655121 102.329041
86 101.696655 -8.392275 -7.654577 -34.454281 -18.946800 151.655121 102.329041
[L_rear_hand02]
85 102.726799 -1.568258 5.773216 83.407906 30.330435 172.796509 102.900848
86 102.726799 -1.568258 5.773216 83.407906 30.330435 172.796509 102.900848
[L_rear_hand03]
85 104.552910 9.721220 -10.420293 -161.379868 -16.473232 -150.512238 105.519653
86 104.552910 9.721220 -10.420293 -161.379868 -16.473232 -150.512238 105.519653
